# xmcd
#
# Track frame offsets:
# 150
# 15950
# 27527
# 39095
# 60420
# 75195
# 88380
# 104440
# 115770
# 132785
# 136577
#
# Disc length: 2028 seconds
#
#
# Revision: 2
# Processed by: cddbd v1.5.1PL0 Copyright (c) Steve Scherf et al.
# Submitted via: FreeRIP 2.90 
#
DISCID=7707ea0b
DTITLE=Garth Brooks - Beyond the Season
DYEAR=1992
DGENRE=Christmas
TTITLE0=Go Tell It On The Mountain
TTITLE1=God Rest Ye Merry Gentlemen
TTITLE2=The Old Man's Back in Town
TTITLE3=The Gift
TTITLE4=Unto You This Night
TTITLE5=White Christmas
TTITLE6=The Friendly Beasts
TTITLE7=Santa Looked A Lot Like Daddy
TTITLE8=Silent Night
TTITLE9=Mary's Dream
TTITLE10=What Child is This
EXTD=
EXTT0=
EXTT1=
EXTT2=
EXTT3=
EXTT4=
EXTT5=
EXTT6=
EXTT7=
EXTT8=
EXTT9=
EXTT10=
PLAYORDER=
